<svg width="152" height="44" viewBox="0 0 152 44" fill="none" xmlns="http://www.w3.org/2000/svg">
<path d="M14.7681 17H11.3989V9.99219H4.8291V17H1.45996V0.648438H4.8291V7.27441H11.3989V0.648438H14.7681V17ZM35.2053 13.6309H29.298L28.175 17H24.5925L30.6794 0.648438H33.8015L39.9221 17H36.3396L35.2053 13.6309ZM30.2077 10.9019H34.2956L32.2404 4.78125L30.2077 10.9019ZM61.6732 0.648438V11.4185C61.6732 13.2078 61.1117 14.6229 59.9887 15.6636C58.8731 16.7043 57.3458 17.2246 55.4066 17.2246C53.4975 17.2246 51.9813 16.7192 50.8583 15.7085C49.7353 14.6978 49.1625 13.3089 49.14 11.542V0.648438H52.5092V11.4409C52.5092 12.5116 52.7637 13.2939 53.2729 13.7881C53.7895 14.2747 54.5007 14.5181 55.4066 14.5181C57.3008 14.5181 58.2629 13.5223 58.2929 11.5308V0.648438H61.6732ZM75.8551 14.2935H83.0089V17H72.4859V0.648438H75.8551V14.2935ZM102.458 13.6309H96.5506L95.4275 17H91.845L97.9319 0.648438H101.054L107.175 17H103.592L102.458 13.6309ZM97.4603 10.9019H101.548L99.493 4.78125L97.4603 10.9019ZM129.442 14.9336C128.836 15.6598 127.979 16.2251 126.871 16.6294C125.763 17.0262 124.535 17.2246 123.187 17.2246C121.772 17.2246 120.529 16.9176 119.458 16.3037C118.395 15.6823 117.572 14.7839 116.988 13.6084C116.411 12.4329 116.116 11.0516 116.101 9.46436V8.35254C116.101 6.72038 116.374 5.30908 116.92 4.11865C117.474 2.92074 118.268 2.00732 119.301 1.37842C120.342 0.742025 121.559 0.423828 122.951 0.423828C124.89 0.423828 126.406 0.888021 127.5 1.81641C128.593 2.7373 129.24 4.08122 129.442 5.84814H126.163C126.013 4.91227 125.68 4.22721 125.164 3.79297C124.654 3.35872 123.951 3.1416 123.052 3.1416C121.907 3.1416 121.035 3.5721 120.436 4.43311C119.837 5.29411 119.533 6.57438 119.526 8.27393V9.31836C119.526 11.0329 119.852 12.3281 120.503 13.2041C121.154 14.0801 122.109 14.5181 123.367 14.5181C124.632 14.5181 125.534 14.2485 126.073 13.7095V10.8906H123.007V8.40869H129.442V14.9336ZM150.071 9.91357H143.602V14.2935H151.194V17H140.233V0.648438H151.171V3.37744H143.602V7.27441H150.071V9.91357Z" fill="white"/>
<path d="M8.60596 30.4932H5.17822V40H3.7793V30.4932H0.358887V29.3359H8.60596V30.4932ZM13.2495 33.291C13.0444 33.2568 12.8223 33.2397 12.583 33.2397C11.6943 33.2397 11.0913 33.6182 10.7739 34.375V40H9.41895V32.0752H10.7373L10.7593 32.9907C11.2036 32.2827 11.8335 31.9287 12.6489 31.9287C12.9126 31.9287 13.1128 31.9629 13.2495 32.0312V33.291ZM19.1016 40C19.0234 39.8438 18.96 39.5654 18.9111 39.165C18.2812 39.8193 17.5293 40.1465 16.6553 40.1465C15.874 40.1465 15.2319 39.9268 14.729 39.4873C14.231 39.043 13.9819 38.4814 13.9819 37.8027C13.9819 36.9775 14.2944 36.3379 14.9194 35.8838C15.5493 35.4248 16.4331 35.1953 17.5708 35.1953H18.8892V34.5728C18.8892 34.0991 18.7476 33.7231 18.4644 33.4448C18.1812 33.1616 17.7637 33.02 17.2119 33.02C16.7285 33.02 16.3232 33.1421 15.9961 33.3862C15.6689 33.6304 15.5054 33.9258 15.5054 34.2725H14.1431C14.1431 33.877 14.2822 33.4961 14.5605 33.1299C14.8438 32.7588 15.2246 32.4658 15.7031 32.251C16.1865 32.0361 16.7163 31.9287 17.2925 31.9287C18.2056 31.9287 18.9209 32.1582 19.4385 32.6172C19.9561 33.0713 20.2246 33.6987 20.2441 34.4995V38.147C20.2441 38.8745 20.3369 39.4531 20.5225 39.8828V40H19.1016ZM16.853 38.9673C17.2778 38.9673 17.6807 38.8574 18.0615 38.6377C18.4424 38.418 18.7183 38.1323 18.8892 37.7808V36.1548H17.8271C16.167 36.1548 15.3369 36.6406 15.3369 37.6123C15.3369 38.0371 15.4785 38.3691 15.7617 38.6084C16.0449 38.8477 16.4087 38.9673 16.853 38.9673ZM23.6499 32.0752L23.6938 33.0713C24.2993 32.3096 25.0903 31.9287 26.0669 31.9287C27.7417 31.9287 28.5864 32.8735 28.6011 34.7632V40H27.2461V34.7559C27.2412 34.1846 27.1094 33.7622 26.8506 33.4888C26.5967 33.2153 26.1987 33.0786 25.6567 33.0786C25.2173 33.0786 24.8315 33.1958 24.4995 33.4302C24.1675 33.6646 23.9087 33.9722 23.7231 34.353V40H22.3682V32.0752H23.6499ZM35.2588 37.8979C35.2588 37.5317 35.1196 37.2485 34.8413 37.0483C34.5679 36.8433 34.0869 36.6675 33.3984 36.521C32.7148 36.3745 32.1704 36.1987 31.7651 35.9937C31.3647 35.7886 31.0669 35.5444 30.8716 35.2612C30.6812 34.978 30.5859 34.6411 30.5859 34.2505C30.5859 33.6011 30.8594 33.0518 31.4062 32.6025C31.958 32.1533 32.6611 31.9287 33.5156 31.9287C34.4141 31.9287 35.1416 32.1606 35.6982 32.6245C36.2598 33.0884 36.5405 33.6816 36.5405 34.4043H35.1782C35.1782 34.0332 35.0195 33.7134 34.7021 33.4448C34.3896 33.1763 33.9941 33.042 33.5156 33.042C33.0225 33.042 32.6367 33.1494 32.3584 33.3643C32.0801 33.5791 31.9409 33.8599 31.9409 34.2065C31.9409 34.5337 32.0703 34.7803 32.3291 34.9463C32.5879 35.1123 33.0542 35.271 33.728 35.4224C34.4067 35.5737 34.9561 35.7544 35.376 35.9644C35.7959 36.1743 36.106 36.4282 36.3062 36.7261C36.5112 37.019 36.6138 37.3779 36.6138 37.8027C36.6138 38.5107 36.3306 39.0796 35.7642 39.5093C35.1978 39.9341 34.4629 40.1465 33.5596 40.1465C32.9248 40.1465 32.3633 40.0342 31.875 39.8096C31.3867 39.585 31.0034 39.2725 30.7251 38.8721C30.4517 38.4668 30.3149 38.0298 30.3149 37.561H31.6699C31.6943 38.0151 31.875 38.3765 32.2119 38.645C32.5537 38.9087 33.0029 39.0405 33.5596 39.0405C34.0723 39.0405 34.4824 38.938 34.79 38.7329C35.1025 38.5229 35.2588 38.2446 35.2588 37.8979ZM45.0732 36.1255C45.0732 37.3315 44.7974 38.3032 44.2456 39.0405C43.6938 39.7778 42.9468 40.1465 42.0044 40.1465C41.0425 40.1465 40.2856 39.8413 39.7339 39.231V43.0469H38.3789V32.0752H39.6167L39.6826 32.9541C40.2344 32.2705 41.001 31.9287 41.9824 31.9287C42.9346 31.9287 43.6865 32.2876 44.2383 33.0054C44.7949 33.7231 45.0732 34.7217 45.0732 36.001V36.1255ZM43.7183 35.9717C43.7183 35.0781 43.5278 34.3726 43.147 33.855C42.7661 33.3374 42.2437 33.0786 41.5796 33.0786C40.7593 33.0786 40.144 33.4424 39.7339 34.1699V37.9565C40.1392 38.6792 40.7593 39.0405 41.5942 39.0405C42.2437 39.0405 42.7588 38.7842 43.1396 38.2715C43.5254 37.7539 43.7183 36.9873 43.7183 35.9717ZM46.4429 35.9644C46.4429 35.188 46.5942 34.4897 46.897 33.8696C47.2046 33.2495 47.6294 32.771 48.1714 32.4341C48.7183 32.0972 49.3408 31.9287 50.0391 31.9287C51.1182 31.9287 51.9897 32.3022 52.6538 33.0493C53.3228 33.7964 53.6572 34.79 53.6572 36.0303V36.1255C53.6572 36.897 53.5083 37.5903 53.2104 38.2056C52.9175 38.8159 52.4951 39.292 51.9434 39.6338C51.3965 39.9756 50.7666 40.1465 50.0537 40.1465C48.9795 40.1465 48.1079 39.7729 47.439 39.0259C46.7749 38.2788 46.4429 37.29 46.4429 36.0596V35.9644ZM47.8052 36.1255C47.8052 37.0044 48.0078 37.71 48.4131 38.2422C48.8232 38.7744 49.3701 39.0405 50.0537 39.0405C50.7422 39.0405 51.2891 38.772 51.6943 38.2349C52.0996 37.6929 52.3022 36.936 52.3022 35.9644C52.3022 35.0952 52.0947 34.3921 51.6797 33.855C51.2695 33.313 50.7227 33.042 50.0391 33.042C49.3701 33.042 48.8306 33.3081 48.4204 33.8403C48.0103 34.3726 47.8052 35.1343 47.8052 36.1255ZM59.187 33.291C58.9819 33.2568 58.7598 33.2397 58.5205 33.2397C57.6318 33.2397 57.0288 33.6182 56.7114 34.375V40H55.3564V32.0752H56.6748L56.6968 32.9907C57.1411 32.2827 57.771 31.9287 58.5864 31.9287C58.8501 31.9287 59.0503 31.9629 59.187 32.0312V33.291ZM62.644 30.1562V32.0752H64.1235V33.1226H62.644V38.0371C62.644 38.3545 62.71 38.5938 62.8418 38.7549C62.9736 38.9111 63.1982 38.9893 63.5156 38.9893C63.6719 38.9893 63.8867 38.96 64.1602 38.9014V40C63.8037 40.0977 63.457 40.1465 63.1201 40.1465C62.5146 40.1465 62.0581 39.9634 61.7505 39.5972C61.4429 39.231 61.2891 38.7109 61.2891 38.0371V33.1226H59.8462V32.0752H61.2891V30.1562H62.644ZM70.6055 40C70.5273 39.8438 70.4639 39.5654 70.415 39.165C69.7852 39.8193 69.0332 40.1465 68.1592 40.1465C67.3779 40.1465 66.7358 39.9268 66.2329 39.4873C65.7349 39.043 65.4858 38.4814 65.4858 37.8027C65.4858 36.9775 65.7983 36.3379 66.4233 35.8838C67.0532 35.4248 67.937 35.1953 69.0747 35.1953H70.3931V34.5728C70.3931 34.0991 70.2515 33.7231 69.9683 33.4448C69.6851 33.1616 69.2676 33.02 68.7158 33.02C68.2324 33.02 67.8271 33.1421 67.5 33.3862C67.1729 33.6304 67.0093 33.9258 67.0093 34.2725H65.647C65.647 33.877 65.7861 33.4961 66.0645 33.1299C66.3477 32.7588 66.7285 32.4658 67.207 32.251C67.6904 32.0361 68.2202 31.9287 68.7964 31.9287C69.7095 31.9287 70.4248 32.1582 70.9424 32.6172C71.46 33.0713 71.7285 33.6987 71.748 34.4995V38.147C71.748 38.8745 71.8408 39.4531 72.0264 39.8828V40H70.6055ZM68.3569 38.9673C68.7817 38.9673 69.1846 38.8574 69.5654 38.6377C69.9463 38.418 70.2222 38.1323 70.3931 37.7808V36.1548H69.3311C67.6709 36.1548 66.8408 36.6406 66.8408 37.6123C66.8408 38.0371 66.9824 38.3691 67.2656 38.6084C67.5488 38.8477 67.9126 38.9673 68.3569 38.9673ZM75.7104 30.1562V32.0752H77.1899V33.1226H75.7104V38.0371C75.7104 38.3545 75.7764 38.5938 75.9082 38.7549C76.04 38.9111 76.2646 38.9893 76.582 38.9893C76.7383 38.9893 76.9531 38.96 77.2266 38.9014V40C76.8701 40.0977 76.5234 40.1465 76.1865 40.1465C75.5811 40.1465 75.1245 39.9634 74.8169 39.5972C74.5093 39.231 74.3555 38.7109 74.3555 38.0371V33.1226H72.9126V32.0752H74.3555V30.1562H75.7104ZM80.2515 40H78.8965V32.0752H80.2515V40ZM78.7866 29.9731C78.7866 29.7534 78.8525 29.5679 78.9844 29.4165C79.1211 29.2651 79.3213 29.1895 79.585 29.1895C79.8486 29.1895 80.0488 29.2651 80.1855 29.4165C80.3223 29.5679 80.3906 29.7534 80.3906 29.9731C80.3906 30.1929 80.3223 30.376 80.1855 30.5225C80.0488 30.6689 79.8486 30.7422 79.585 30.7422C79.3213 30.7422 79.1211 30.6689 78.9844 30.5225C78.8525 30.376 78.7866 30.1929 78.7866 29.9731ZM82.0679 35.9644C82.0679 35.188 82.2192 34.4897 82.522 33.8696C82.8296 33.2495 83.2544 32.771 83.7964 32.4341C84.3433 32.0972 84.9658 31.9287 85.6641 31.9287C86.7432 31.9287 87.6147 32.3022 88.2788 33.0493C88.9478 33.7964 89.2822 34.79 89.2822 36.0303V36.1255C89.2822 36.897 89.1333 37.5903 88.8354 38.2056C88.5425 38.8159 88.1201 39.292 87.5684 39.6338C87.0215 39.9756 86.3916 40.1465 85.6787 40.1465C84.6045 40.1465 83.7329 39.7729 83.064 39.0259C82.3999 38.2788 82.0679 37.29 82.0679 36.0596V35.9644ZM83.4302 36.1255C83.4302 37.0044 83.6328 37.71 84.0381 38.2422C84.4482 38.7744 84.9951 39.0405 85.6787 39.0405C86.3672 39.0405 86.9141 38.772 87.3193 38.2349C87.7246 37.6929 87.9272 36.936 87.9272 35.9644C87.9272 35.0952 87.7197 34.3921 87.3047 33.855C86.8945 33.313 86.3477 33.042 85.6641 33.042C84.9951 33.042 84.4556 33.3081 84.0454 33.8403C83.6353 34.3726 83.4302 35.1343 83.4302 36.1255ZM92.2632 32.0752L92.3071 33.0713C92.9126 32.3096 93.7036 31.9287 94.6802 31.9287C96.355 31.9287 97.1997 32.8735 97.2144 34.7632V40H95.8594V34.7559C95.8545 34.1846 95.7227 33.7622 95.4639 33.4888C95.21 33.2153 94.812 33.0786 94.27 33.0786C93.8306 33.0786 93.4448 33.1958 93.1128 33.4302C92.7808 33.6646 92.522 33.9722 92.3364 34.353V40H90.9814V32.0752H92.2632ZM106.333 35.2466C105.127 34.8999 104.248 34.4751 103.696 33.9722C103.149 33.4644 102.876 32.8394 102.876 32.0972C102.876 31.2573 103.21 30.564 103.879 30.0171C104.553 29.4653 105.427 29.1895 106.501 29.1895C107.234 29.1895 107.886 29.3311 108.457 29.6143C109.033 29.8975 109.478 30.2881 109.79 30.7861C110.107 31.2842 110.266 31.8286 110.266 32.4194H108.853C108.853 31.7749 108.647 31.2695 108.237 30.9033C107.827 30.5322 107.249 30.3467 106.501 30.3467C105.808 30.3467 105.266 30.5005 104.875 30.8081C104.49 31.1108 104.297 31.5332 104.297 32.0752C104.297 32.5098 104.48 32.8784 104.846 33.1812C105.217 33.479 105.845 33.7524 106.729 34.0015C107.617 34.2505 108.311 34.5264 108.809 34.8291C109.312 35.127 109.683 35.4761 109.922 35.8765C110.166 36.2769 110.288 36.748 110.288 37.29C110.288 38.1543 109.951 38.8477 109.277 39.3701C108.604 39.8877 107.703 40.1465 106.575 40.1465C105.842 40.1465 105.159 40.0073 104.524 39.729C103.889 39.4458 103.398 39.0601 103.052 38.5718C102.71 38.0835 102.539 37.5293 102.539 36.9092H103.953C103.953 37.5537 104.189 38.064 104.663 38.4399C105.142 38.811 105.779 38.9966 106.575 38.9966C107.317 38.9966 107.886 38.8452 108.281 38.5425C108.677 38.2397 108.875 37.8271 108.875 37.3047C108.875 36.7822 108.691 36.3794 108.325 36.0962C107.959 35.8081 107.295 35.5249 106.333 35.2466ZM115.173 40.1465C114.099 40.1465 113.225 39.7949 112.551 39.0918C111.877 38.3838 111.541 37.439 111.541 36.2573V36.0083C111.541 35.2222 111.689 34.5215 111.987 33.9062C112.29 33.2861 112.71 32.8027 113.247 32.4561C113.789 32.1045 114.375 31.9287 115.005 31.9287C116.035 31.9287 116.836 32.2681 117.407 32.9468C117.979 33.6255 118.264 34.5972 118.264 35.8618V36.4258H112.896C112.915 37.207 113.142 37.8394 113.577 38.3228C114.016 38.8013 114.573 39.0405 115.247 39.0405C115.725 39.0405 116.13 38.9429 116.462 38.7476C116.794 38.5522 117.085 38.2935 117.334 37.9712L118.162 38.6157C117.498 39.6362 116.501 40.1465 115.173 40.1465ZM115.005 33.042C114.458 33.042 113.999 33.2422 113.628 33.6426C113.257 34.0381 113.027 34.5947 112.939 35.3125H116.909V35.21C116.87 34.5215 116.685 33.9893 116.353 33.6133C116.021 33.2324 115.571 33.042 115.005 33.042ZM123.669 33.291C123.464 33.2568 123.242 33.2397 123.003 33.2397C122.114 33.2397 121.511 33.6182 121.194 34.375V40H119.839V32.0752H121.157L121.179 32.9907C121.624 32.2827 122.253 31.9287 123.069 31.9287C123.333 31.9287 123.533 31.9629 123.669 32.0312V33.291ZM127.668 38.1616L129.631 32.0752H131.016L128.174 40H127.141L124.27 32.0752H125.654L127.668 38.1616ZM133.792 40H132.437V32.0752H133.792V40ZM132.327 29.9731C132.327 29.7534 132.393 29.5679 132.524 29.4165C132.661 29.2651 132.861 29.1895 133.125 29.1895C133.389 29.1895 133.589 29.2651 133.726 29.4165C133.862 29.5679 133.931 29.7534 133.931 29.9731C133.931 30.1929 133.862 30.376 133.726 30.5225C133.589 30.6689 133.389 30.7422 133.125 30.7422C132.861 30.7422 132.661 30.6689 132.524 30.5225C132.393 30.376 132.327 30.1929 132.327 29.9731ZM139.146 39.0405C139.629 39.0405 140.051 38.894 140.413 38.6011C140.774 38.3081 140.974 37.9419 141.013 37.5024H142.295C142.271 37.9565 142.114 38.3887 141.826 38.7988C141.538 39.209 141.152 39.5361 140.669 39.7803C140.19 40.0244 139.683 40.1465 139.146 40.1465C138.066 40.1465 137.207 39.7876 136.567 39.0698C135.933 38.3472 135.615 37.3608 135.615 36.1108V35.8838C135.615 35.1123 135.757 34.4263 136.04 33.8257C136.323 33.2251 136.729 32.7588 137.256 32.4268C137.788 32.0947 138.416 31.9287 139.138 31.9287C140.027 31.9287 140.764 32.1948 141.35 32.7271C141.941 33.2593 142.256 33.9502 142.295 34.7998H141.013C140.974 34.2871 140.779 33.8672 140.427 33.54C140.081 33.208 139.651 33.042 139.138 33.042C138.45 33.042 137.915 33.291 137.534 33.7891C137.158 34.2822 136.97 34.9976 136.97 35.9351V36.1914C136.97 37.1045 137.158 37.8076 137.534 38.3008C137.91 38.7939 138.447 39.0405 139.146 39.0405ZM147.107 40.1465C146.033 40.1465 145.159 39.7949 144.485 39.0918C143.811 38.3838 143.474 37.439 143.474 36.2573V36.0083C143.474 35.2222 143.623 34.5215 143.921 33.9062C144.224 33.2861 144.644 32.8027 145.181 32.4561C145.723 32.1045 146.309 31.9287 146.938 31.9287C147.969 31.9287 148.77 32.2681 149.341 32.9468C149.912 33.6255 150.198 34.5972 150.198 35.8618V36.4258H144.829C144.849 37.207 145.076 37.8394 145.51 38.3228C145.95 38.8013 146.506 39.0405 147.18 39.0405C147.659 39.0405 148.064 38.9429 148.396 38.7476C148.728 38.5522 149.019 38.2935 149.268 37.9712L150.095 38.6157C149.431 39.6362 148.435 40.1465 147.107 40.1465ZM146.938 33.042C146.392 33.042 145.933 33.2422 145.562 33.6426C145.19 34.0381 144.961 34.5947 144.873 35.3125H148.843V35.21C148.804 34.5215 148.618 33.9893 148.286 33.6133C147.954 33.2324 147.505 33.042 146.938 33.042Z" fill="white"/>
</svg>
